<svg width="200" height="60" viewBox="0 0 200 60" fill="none" xmlns="http://www.w3.org/2000/svg">
  <path d="M20 10H40C45.5228 10 50 14.4772 50 20V40C50 45.5228 45.5228 50 40 50H20C14.4772 50 10 45.5228 10 40V20C10 14.4772 14.4772 10 20 10Z" fill="#00A5A5"/>
  <path d="M24 20L24 40" stroke="white" stroke-width="3" stroke-linecap="round"/>
  <path d="M34 20L34 40" stroke="white" stroke-width="3" stroke-linecap="round"/>
  <path d="M24 30L34 30" stroke="white" stroke-width="3" stroke-linecap="round"/>
  <path d="M60 20H80C85.5228 20 90 24.4772 90 30V30C90 35.5228 85.5228 40 80 40H60V20Z" fill="#00A5A5"/>
  <rect x="100" y="20" width="15" height="20" rx="7.5" fill="#00A5A5"/>
  <rect x="125" y="20" width="15" height="20" rx="7.5" fill="#00A5A5"/>
  <path d="M150 20H170C175.523 20 180 24.4772 180 30V30C180 35.5228 175.523 40 170 40H150V20Z" fill="#00A5A5"/>
  <path d="M152 30H175" stroke="white" stroke-width="3" stroke-linecap="round"/>
  <path d="M62 30H87" stroke="white" stroke-width="3" stroke-linecap="round"/>
</svg>